<svg height="496pt" viewBox="-40 0 496 496" width="496pt" xmlns="http://www.w3.org/2000/svg"><path d="m135.996094 488h-88v-128c0-35.34375 28.65625-64 64-64h192c35.34375 0 64 28.65625 64 64v128h-88" fill="#568e53"/><g fill="#efbe9a"><path d="m319.996094 400h48v88h-48zm0 0"/><path d="m47.996094 400h40v88h-40zm0 0"/><path d="m151.996094 296v56c0 30.929688 25.070312 56 56 56 30.925781 0 56-25.070312 56-56v-56"/></g><path d="m303.996094 256 8.285156 8.289062c10.066406 10.0625 23.707031 15.710938 37.929688 15.710938 16.296874 0 31.703124-7.40625 41.886718-20.128906l15.898438-19.871094c-17.671875 0-32-14.328125-32-32v-96c0-57.441406-46.5625-104-104-104-11.167969 0-21.921875 1.761719-32 5.015625-10.082032-3.253906-20.832032-5.015625-32-5.015625-11.167969 0-21.921875 1.761719-32 5.015625-10.082032-3.253906-20.832032-5.015625-32-5.015625-57.441406 0-104 46.558594-104 104v80c0 17.671875-14.328125 48-32 48l15.894531 19.871094c10.175781 12.722656 25.59375 20.128906 41.886719 20.128906 14.226562 0 27.875-5.648438 37.929687-15.710938l8.289063-8.289062" fill="#e4725f"/><path d="m119.996094 208h-16c-17.671875 0-32-14.328125-32-32s14.328125-32 32-32h16" fill="#db9b7c"/><path d="m295.996094 208h16c17.671875 0 32-14.328125 32-32s-14.328125-32-32-32h-16" fill="#efbe9a"/><path d="m239.996094 72c0 30.929688-25.074219 56-56 56h-80v80c0 57.441406 46.558594 104 104 104 57.4375 0 104-46.558594 104-104v-80h-16c-30.929688 0-56-25.070312-56-56" fill="#db9b7c"/><path d="m195.996094 311.257812c51.773437-5.960937 92-49.882812 92-103.257812v-80h-16c-17.875 0-33.746094-8.398438-44-21.433594-10.257813 13.035156-26.128906 21.433594-44 21.433594h-80v80c0 53.375 40.222656 97.296875 92 103.257812zm0 0" fill="#efbe9a"/><path d="m367.996094 496h-88v-16h80v-120c0-30.871094-25.128906-56-56-56h-40v-16h40c39.703125 0 72 32.296875 72 72v128c0 4.425781-3.578125 8-8 8zm0 0"/><path d="m135.996094 496h-88c-4.425782 0-8-3.574219-8-8v-128c0-39.703125 32.292968-72 72-72h40v16h-40c-30.875 0-56 25.128906-56 56v120h80zm0 0"/><path d="m289.882812 496h-163.777343c-25.421875 0-46.109375-20.6875-46.109375-46.113281 0-12.925781 3.054687-25.878907 8.839844-37.472657 4.679687-9.359374 7.160156-19.847656 7.160156-30.300781v-6.113281h16v6.113281c0 12.925781-3.058594 25.878907-8.839844 37.472657-4.683594 9.359374-7.160156 19.847656-7.160156 30.300781 0 16.609375 13.503906 30.113281 30.109375 30.113281h163.785156c16.601563 0 30.105469-13.503906 30.105469-30.113281 0-10.460938-2.480469-20.941407-7.160156-30.3125-5.785157-11.582031-8.839844-24.535157-8.839844-37.460938v-6.113281h16v6.113281c0 10.460938 2.476562 20.941407 7.160156 30.3125 5.78125 11.582031 8.839844 24.535157 8.839844 37.460938 0 25.425781-20.691406 46.113281-46.113282 46.113281zm0 0"/><path d="m119.378906 75.015625-14.769531-6.167969c17.480469-41.824218 58.058594-68.847656 103.386719-68.847656 11.773437 0 23.367187 1.824219 34.460937 5.40625l-4.917969 15.21875c-9.503906-3.074219-19.441406-4.625-29.542968-4.625-38.851563 0-73.640625 23.167969-88.617188 59.015625zm0 0"/><path d="m65.777344 288c-18.832032 0-36.382813-8.433594-48.136719-23.144531l-15.894531-19.855469c-1.910156-2.40625-2.289063-5.695312-.960938-8.472656 1.335938-2.757813 4.128906-4.527344 7.210938-4.527344 11.125 0 24-24.199219 24-40v-80c0-61.761719 50.238281-112 112-112 11.773437 0 23.367187 1.824219 34.460937 5.40625l-4.917969 15.21875c-9.503906-3.074219-19.441406-4.625-29.542968-4.625-52.9375 0-96 43.0625-96 96v80c0 15.398438-9.992188 42.046875-26.503906 52.054688l8.652343 10.816406c8.691407 10.890625 21.683594 17.128906 35.632813 17.128906 12.183594 0 23.65625-4.753906 32.273437-13.367188l8.289063-8.289062 11.3125 11.3125-8.289063 8.289062c-11.640625 11.640626-27.128906 18.054688-43.585937 18.054688zm0 0"/><path d="m350.210938 288c-16.464844 0-31.945313-6.414062-43.585938-18.054688l-8.285156-8.289062 11.3125-11.3125 8.285156 8.289062c8.617188 8.613282 20.089844 13.367188 32.273438 13.367188 13.945312 0 26.933593-6.238281 35.632812-17.128906l7.671875-9.582032c-14.921875-5.808593-25.519531-20.335937-25.519531-37.289062v-96c0-52.9375-43.066406-96-96-96-52.9375 0-96 43.0625-96 96h-16c0-61.761719 50.238281-112 112-112 61.757812 0 112 50.238281 112 112v96c0 13.230469 10.765625 24 24 24 3.078125 0 5.871094 1.769531 7.207031 4.527344 1.328125 2.777344.953125 6.066406-.960937 8.472656l-15.894532 19.863281c-11.753906 14.703125-29.296875 23.136719-48.136718 23.136719zm0 0"/><path d="m103.996094 216c-22.058594 0-40-17.945312-40-40s17.941406-40 40-40v16c-13.234375 0-24 10.769531-24 24s10.765625 24 24 24zm0 0"/><path d="m311.996094 216v-16c13.230468 0 24-10.769531 24-24s-10.769532-24-24-24v-16c22.054687 0 40 17.945312 40 40s-17.945313 40-40 40zm0 0"/><path d="m223.996094 152h56v16h-56zm0 0"/><path d="m135.996094 152h56v16h-56zm0 0"/><path d="m199.996094 192h16v32h-16zm0 0"/><path d="m171.996094 200c-6.617188 0-12-5.382812-12-12s5.382812-12 12-12c6.613281 0 12 5.382812 12 12s-5.386719 12-12 12zm0-16c-2.203125 0-4 1.800781-4 4s1.796875 4 4 4c2.199218 0 4-1.800781 4-4s-1.800782-4-4-4zm0 0"/><path d="m243.996094 200c-6.617188 0-12-5.382812-12-12s5.382812-12 12-12c6.613281 0 12 5.382812 12 12s-5.386719 12-12 12zm0-16c-2.203125 0-4 1.800781-4 4s1.796875 4 4 4c2.199218 0 4-1.800781 4-4s-1.800782-4-4-4zm0 0"/><path d="m207.996094 288c-30.875 0-56-25.128906-56-56h16c0 22.054688 17.941406 40 40 40 22.054687 0 40-17.945312 40-40h16c0 30.871094-25.128906 56-56 56zm0 0"/><path d="m47.996094 392h48v16h-48zm0 0"/><path d="m319.996094 392h48v16h-48zm0 0"/><path d="m207.996094 416c-35.289063 0-64-28.710938-64-64v-56h16v56c0 26.472656 21.527344 48 48 48 26.46875 0 48-21.527344 48-48v-56h16v56c0 35.289062-28.714844 64-64 64zm0 0"/><path d="m207.996094 320c-61.761719 0-112-50.238281-112-112v-80c0-4.425781 3.574218-8 8-8h80c26.46875 0 48-21.527344 48-48 0-4.425781 3.574218-8 8-8 4.421875 0 8 3.574219 8 8 0 26.472656 21.527344 48 48 48h16c4.421875 0 8 3.574219 8 8v80c0 61.761719-50.242188 112-112 112zm-96-184v72c0 52.9375 43.0625 96 96 96 52.933594 0 96-43.0625 96-96v-72h-8c-24.066406 0-45.074219-13.351562-56-33.039062-10.929688 19.6875-31.9375 33.039062-56 33.039062zm0 0"/></svg>