<svg height="496pt" viewBox="-80 0 496 496" width="496pt" xmlns="http://www.w3.org/2000/svg"><path d="m112 296h-40c-35.34375 0-64 28.65625-64 64v128h320v-128c0-35.34375-28.65625-64-64-64h-40" fill="#695b52"/><path d="m232 296h-160c-35.34375 0-64 28.65625-64 64v128h288v-128c0-35.34375-28.65625-64-64-64zm0 0" fill="#857970"/><path d="m256 296-88 88-88-88" fill="#efbe9a"/><path d="m136 488h-16v-64c0-2.128906.839844-4.160156 2.34375-5.65625l128-128 11.3125 11.3125-125.65625 125.65625zm0 0"/><path d="m64 64v-8c0-26.511719 21.488281-48 48-48h112c26.511719 0 48 21.488281 48 48v8" fill="#857970"/><path d="m264 80h64l-16-24 16-24h-64" fill="#b8cbd9"/><path d="m48 64h240v48h-240zm0 0" fill="#e8eff4"/><path d="m80 208h-16c-17.671875 0-32-14.328125-32-32s14.328125-32 32-32h16" fill="#db9b7c"/><path d="m256 208h16c17.671875 0 32-14.328125 32-32s-14.328125-32-32-32h-16" fill="#efbe9a"/><path d="m272 112v96c0 57.441406-46.558594 104-104 104s-104-46.558594-104-104v-96" fill="#db9b7c"/><path d="m156 311.257812c51.777344-5.960937 92-49.882812 92-103.257812v-96h-184v96c0 53.375 40.222656 97.296875 92 103.257812zm0 0" fill="#efbe9a"/><path d="m168 320c-61.761719 0-112-50.238281-112-112v-96h16v96c0 52.9375 43.0625 96 96 96s96-43.0625 96-96v-96h16v96c0 61.761719-50.238281 112-112 112zm0 0"/><path d="m280 64h-16v-8c0-22.054688-17.945312-40-40-40h-112c-22.054688 0-40 17.945312-40 40v8h-16v-8c0-30.878906 25.128906-56 56-56h112c30.871094 0 56 25.121094 56 56zm0 0"/><path d="m64 216c-22.054688 0-40-17.945312-40-40s17.945312-40 40-40v16c-13.230469 0-24 10.769531-24 24s10.769531 24 24 24zm0 0"/><path d="m272 216v-16c13.230469 0 24-10.769531 24-24s-10.769531-24-24-24v-16c22.054688 0 40 17.945312 40 40s-17.945312 40-40 40zm0 0"/><path d="m184 152h56v16h-56zm0 0"/><path d="m96 152h56v16h-56zm0 0"/><path d="m160 192h16v32h-16zm0 0"/><path d="m132 200c-6.617188 0-12-5.382812-12-12s5.382812-12 12-12 12 5.382812 12 12-5.382812 12-12 12zm0-16c-2.199219 0-4 1.792969-4 4s1.800781 4 4 4 4-1.792969 4-4-1.800781-4-4-4zm0 0"/><path d="m204 200c-6.617188 0-12-5.382812-12-12s5.382812-12 12-12 12 5.382812 12 12-5.382812 12-12 12zm0-16c-2.199219 0-4 1.792969-4 4s1.800781 4 4 4 4-1.792969 4-4-1.800781-4-4-4zm0 0"/><path d="m328 496h-320c-4.425781 0-8-3.574219-8-8v-128c0-39.703125 32.296875-72 72-72h40v16h-40c-30.871094 0-56 25.128906-56 56v120h304v-120c0-30.871094-25.128906-56-56-56h-40v-16h40c39.703125 0 72 32.296875 72 72v128c0 4.425781-3.574219 8-8 8zm0 0"/><path d="m168 288c-30.871094 0-56-25.128906-56-56h16c0 22.054688 17.945312 40 40 40s40-17.945312 40-40h16c0 30.871094-25.128906 56-56 56zm0 0"/><path d="m288 120h-240c-4.425781 0-8-3.585938-8-8v-48c0-4.414062 3.574219-8 8-8h240c4.425781 0 8 3.585938 8 8v48c0 4.414062-3.574219 8-8 8zm-232-16h224v-32h-224zm0 0"/><path d="m74.339844 301.65625 11.3125-11.3125 88 87.996094-11.316406 11.316406zm0 0"/><path d="m56 392h16v96h-16zm0 0"/><path d="m264 392h16v96h-16zm0 0"/><path d="m160 448h16v16h-16zm0 0"/><path d="m160 416h16v16h-16zm0 0"/><path d="m328 88h-40v-16h25.054688l-7.710938-11.558594c-1.792969-2.6875-1.792969-6.183594 0-8.875l7.710938-11.566406h-49.054688v-16h64c2.953125 0 5.664062 1.625 7.054688 4.222656 1.394531 2.601563 1.234374 5.761719-.398438 8.210938l-13.039062 19.566406 13.039062 19.558594c1.632812 2.457031 1.792969 5.609375.398438 8.210937-1.390626 2.597657-4.101563 4.230469-7.054688 4.230469zm0 0"/></svg>