<svg height="496pt" viewBox="-80 0 496 496.00055" width="496pt" xmlns="http://www.w3.org/2000/svg"><path d="m80 208h-16c-17.671875 0-32-14.328125-32-32s14.328125-32 32-32h16" fill="#db9b7c"/><path d="m256 208h16c17.671875 0 32-14.328125 32-32s-14.328125-32-32-32h-16" fill="#efbe9a"/><path d="m64 48v160c0 57.441406 46.558594 104 104 104s104-46.558594 104-104v-200l-23.046875 12.808594c-32.105469 17.832031-68.226563 27.191406-104.953125 27.191406" fill="#db9b7c"/><path d="m156 311.257812c51.777344-5.960937 92-49.882812 92-103.257812v-186.703125c-31.871094 17.496094-67.632812 26.703125-104 26.703125h-80v160c0 53.375 40.222656 97.296875 92 103.257812zm0 0" fill="#efbe9a"/><path d="m248.953125 20.800781c-32.105469 17.839844-68.226563 27.199219-104.953125 27.199219 0-22.085938-17.910156-40-40-40-22.085938 0-40 17.914062-40 40v80c17.671875 0 32-14.328125 32-32v-16c20.488281 20.488281 48.28125 32 77.257812 32h98.742188v-104zm0 0" fill="#4472b2"/><path d="m112 296h-40c-35.34375 0-64 28.65625-64 64v128h320v-128c0-35.34375-28.65625-64-64-64h-40" fill="#d1a339"/><path d="m232 296h-160c-35.34375 0-64 28.65625-64 64v128h288v-128c0-35.34375-28.65625-64-64-64zm0 0" fill="#f0d365"/><path d="m224 296-24 40 8 8-40 88-40-88 8-8-24-40" fill="#efbe9a"/><path d="m104 368 32-32-24-40-22.464844 6.914062zm0 0" fill="#d1a339"/><path d="m232 368 14.464844-65.085938-22.464844-6.914062-24 40zm0 0" fill="#d1a339"/><path d="m168 320c-61.757812 0-112-50.238281-112-112v-160h16v160c0 52.9375 43.0625 96 96 96s96-43.0625 96-96v-186.398438l-11.160156 6.199219c-33.207032 18.449219-70.847656 28.199219-108.839844 28.199219v-16c35.28125 0 70.222656-9.054688 101.0625-26.183594l23.050781-12.808594c2.480469-1.375 5.496094-1.34375 7.941407.097657 2.441406 1.4375 3.945312 4.0625 3.945312 6.894531v200c0 61.761719-50.238281 112-112 112zm0 0"/><path d="m64 216c-22.054688 0-40-17.945312-40-40s17.945312-40 40-40v16c-13.230469 0-24 10.769531-24 24 0 13.234375 10.769531 24 24 24zm0 0"/><path d="m272 216v-16c13.230469 0 24-10.765625 24-24 0-13.230469-10.769531-24-24-24v-16c22.054688 0 40 17.945312 40 40s-17.945312 40-40 40zm0 0"/><path d="m56 392h16v96h-16zm0 0"/><path d="m264 392h16v96h-16zm0 0"/><path d="m184 152h56v16h-56zm0 0"/><path d="m96 152h56v16h-56zm0 0"/><path d="m160 192h16v32h-16zm0 0"/><path d="m132 200c-6.617188 0-12-5.382812-12-12s5.382812-12 12-12 12 5.382812 12 12-5.382812 12-12 12zm0-16c-2.207031 0-4 1.792969-4 4s1.792969 4 4 4 4-1.792969 4-4-1.792969-4-4-4zm0 0"/><path d="m204 200c-6.617188 0-12-5.382812-12-12s5.382812-12 12-12 12 5.382812 12 12-5.382812 12-12 12zm0-16c-2.207031 0-4 1.792969-4 4s1.792969 4 4 4 4-1.792969 4-4-1.792969-4-4-4zm0 0"/><path d="m328 496h-320c-4.414062 0-8-3.574219-8-8v-128c0-39.703125 32.304688-72 72-72h40v16h-40c-30.878906 0-56 25.128906-56 56v120h304v-120c0-30.871094-25.121094-56-56-56h-40v-16h40c39.695312 0 72 32.296875 72 72v128c0 4.425781-3.582031 8-8 8zm0 0"/><path d="m168 288c-30.878906 0-56-25.128906-56-56h16c0 22.054688 17.945312 40 40 40s40-17.945312 40-40h16c0 30.871094-25.121094 56-56 56zm0 0"/><path d="m142.398438 76.808594-12.796876-9.609375c4.191407-5.566407 6.398438-12.207031 6.398438-19.199219 0-17.648438-14.351562-32-32-32s-32 14.351562-32 32h-16c0-26.472656 21.527344-48 48-48s48 21.527344 48 48c0 10.480469-3.320312 20.441406-9.601562 28.808594zm0 0"/><path d="m64 136v-16c13.230469 0 24-10.765625 24-24v-16c0-3.230469 1.953125-6.152344 4.9375-7.390625 2.992188-1.242187 6.421875-.5625 8.71875 1.734375 19.128906 19.128906 44.550781 29.65625 71.601562 29.65625h98.742188v16h-98.742188c-25.257812 0-49.304687-7.933594-69.28125-22.625-.726562 21.425781-18.382812 38.625-39.976562 38.625zm0 0"/><path d="m104 376c-.742188 0-1.503906-.101562-2.238281-.320312-2.800781-.816407-4.9375-3.09375-5.570313-5.941407l-16-72 15.617188-3.472656 12.839844 57.773437 17.28125-17.277343-20.785157-34.640625 13.71875-8.234375 24 40c1.890625 3.152343 1.394531 7.179687-1.199219 9.777343l-32 32c-1.527343 1.511719-3.574218 2.335938-5.664062 2.335938zm0 0"/><path d="m168 440c-3.136719 0-5.984375-1.832031-7.28125-4.6875l-40-88 14.5625-6.625 32.71875 71.976562 32.71875-71.976562 14.5625 6.625-40 88c-1.296875 2.855469-4.144531 4.6875-7.28125 4.6875zm0 0"/><path d="m232 376c-2.085938 0-4.136719-.824219-5.65625-2.34375l-32-32c-2.597656-2.589844-3.09375-6.625-1.199219-9.777344l24-40 13.71875 8.234375-20.78125 34.640625 17.277344 17.277344 12.839844-57.773438 15.617187 3.472657-16 72c-.632812 2.847656-2.769531 5.132812-5.566406 5.941406-.746094.226563-1.503906.328125-2.25.328125zm0 0"/><path d="m160 432h16v56h-16zm0 0"/></svg>