<svg height="496pt" viewBox="-80 0 496 496" width="496pt" xmlns="http://www.w3.org/2000/svg"><path d="m112 296h-40c-35.34375 0-64 28.65625-64 64v128h320v-128c0-35.34375-28.65625-64-64-64h-40" fill="#b8cbd9"/><path d="m232 296h-160c-35.34375 0-64 28.65625-64 64v128h288v-128c0-35.34375-28.65625-64-64-64zm0 0" fill="#e8eff4"/><path d="m216 296v24c0 26.511719-21.488281 48-48 48s-48-21.488281-48-48v-24" fill="#efbe9a"/><path d="m80 208h-16c-17.671875 0-32-14.328125-32-32s14.328125-32 32-32h16" fill="#db9b7c"/><path d="m256 208h16c17.671875 0 32-14.328125 32-32s-14.328125-32-32-32h-16" fill="#efbe9a"/><path d="m272 56v152c0 57.441406-46.558594 104-104 104s-104-46.558594-104-104v-152c0-26.511719 21.488281-48 48-48h112c26.511719 0 48 21.488281 48 48zm0 0" fill="#db9b7c"/><path d="m64 56v152c0 53.375 40.222656 97.296875 92 103.257812 51.777344-5.960937 92-49.882812 92-103.257812v-152c0-26.511719-21.488281-48-48-48h-88c-26.511719 0-48 21.488281-48 48zm0 0" fill="#efbe9a"/><path d="m80 24c-22.089844 0-40 17.910156-40 40 0 6.847656 1.878906 13.199219 4.910156 18.832031-7.636718 4.015625-12.910156 11.9375-12.910156 21.167969 0 13.257812 10.742188 24 24 24s24-10.742188 24-24c22.089844 0 40-17.910156 40-40s-17.910156-40-40-40zm0 0" fill="#857970"/><path d="m256 24c22.089844 0 40 17.910156 40 40 0 6.847656-1.878906 13.199219-4.910156 18.832031 7.636718 4.015625 12.910156 11.9375 12.910156 21.167969 0 13.257812-10.742188 24-24 24s-24-10.742188-24-24c-22.089844 0-40-17.910156-40-40s17.910156-40 40-40zm0 0" fill="#857970"/><path d="m248 176c0 17.671875-14.328125 32-32 32s-32-14.328125-32-32 14.328125-32 32-32 32 14.328125 32 32zm0 0" fill="#e8eff4"/><path d="m152 176c0 17.671875-14.328125 32-32 32s-32-14.328125-32-32 14.328125-32 32-32 32 14.328125 32 32zm0 0" fill="#e8eff4"/><path d="m64 216c-22.054688 0-40-17.945312-40-40s17.945312-40 40-40v16c-13.230469 0-24 10.769531-24 24s10.769531 24 24 24zm0 0"/><path d="m272 216v-16c13.230469 0 24-10.769531 24-24s-10.769531-24-24-24v-16c22.054688 0 40 17.945312 40 40s-17.945312 40-40 40zm0 0"/><path d="m160 192h16v32h-16zm0 0"/><path d="m328 496h-320c-4.425781 0-8-3.585938-8-8v-128c0-39.695312 32.296875-72 72-72h40v16h-40c-30.871094 0-56 25.121094-56 56v120h304v-120c0-30.878906-25.128906-56-56-56h-40v-16h40c39.703125 0 72 32.304688 72 72v128c0 4.414062-3.574219 8-8 8zm0 0"/><path d="m56 392h16v96h-16zm0 0"/><path d="m264 392h16v96h-16zm0 0"/><path d="m168 376c-30.871094 0-56-25.121094-56-56v-24h16v24c0 22.054688 17.945312 40 40 40s40-17.945312 40-40v-24h16v24c0 30.878906-25.128906 56-56 56zm0 0"/><path d="m56 136c-17.648438 0-32-14.351562-32-32 0-9.289062 4.046875-17.945312 10.894531-23.945312-1.917969-5.222657-2.894531-10.597657-2.894531-16.054688 0-26.472656 21.527344-48 48-48s48 21.527344 48 48c0 24.046875-17.785156 44.023438-40.878906 47.472656-3.378906 14.046875-16.050782 24.527344-31.121094 24.527344zm24-104c-17.648438 0-32 14.351562-32 32 0 5.097656 1.335938 10.160156 3.960938 15.039062 1.007812 1.882813 1.222656 4.089844.597656 6.128907-.621094 2.039062-2.039063 3.753906-3.925782 4.742187-5.320312 2.800782-8.632812 8.203125-8.632812 14.089844 0 8.824219 7.175781 16 16 16s16-7.175781 16-16c0-4.414062 3.574219-8 8-8 17.648438 0 32-14.351562 32-32s-14.351562-32-32-32zm0 0"/><path d="m280 136c-15.070312 0-27.742188-10.480469-31.121094-24.527344-23.09375-3.449218-40.878906-23.425781-40.878906-47.472656 0-26.472656 21.527344-48 48-48s48 21.527344 48 48c0 5.457031-.976562 10.832031-2.894531 16.054688 6.847656 6 10.894531 14.65625 10.894531 23.945312 0 17.648438-14.351562 32-32 32zm-24-104c-17.648438 0-32 14.351562-32 32s14.351562 32 32 32c4.425781 0 8 3.585938 8 8 0 8.824219 7.175781 16 16 16s16-7.175781 16-16c0-5.886719-3.3125-11.289062-8.632812-14.089844-1.886719-.988281-3.304688-2.695312-3.925782-4.742187-.625-2.046875-.410156-4.246094.597656-6.128907 2.625-4.878906 3.960938-9.941406 3.960938-15.039062 0-17.648438-14.351562-32-32-32zm0 0"/><path d="m168 320c-61.761719 0-112-50.238281-112-112v-80h16v80c0 52.9375 43.0625 96 96 96s96-43.0625 96-96v-80h16v80c0 61.761719-50.238281 112-112 112zm0 0"/><path d="m254.023438 29.558594c-7.597657-8.613282-18.535157-13.558594-30.023438-13.558594h-112c-11.457031 0-22.382812 4.929688-29.984375 13.519531l-11.984375-10.597656c10.632812-12.027344 25.929688-18.921875 41.96875-18.921875h112c16.070312 0 31.390625 6.921875 42.023438 18.984375zm0 0"/><path d="m216 216c-22.054688 0-40-17.945312-40-40s17.945312-40 40-40 40 17.945312 40 40-17.945312 40-40 40zm0-64c-13.230469 0-24 10.769531-24 24s10.769531 24 24 24 24-10.769531 24-24-10.769531-24-24-24zm0 0"/><path d="m248 168h24v16h-24zm0 0"/><path d="m120 216c-22.054688 0-40-17.945312-40-40s17.945312-40 40-40 40 17.945312 40 40-17.945312 40-40 40zm0-64c-13.230469 0-24 10.769531-24 24s10.769531 24 24 24 24-10.769531 24-24-10.769531-24-24-24zm0 0"/><path d="m64 168h24v16h-24zm0 0"/><path d="m152 168h32v16h-32zm0 0"/><path d="m104 168h32v16h-32zm0 0"/><path d="m200 168h32v16h-32zm0 0"/><path d="m168 288c-30.871094 0-56-25.121094-56-56h16c0 22.054688 17.945312 40 40 40s40-17.945312 40-40h16c0 30.878906-25.128906 56-56 56zm0 0"/></svg>