<svg height="496pt" viewBox="-72 0 496 496" width="496pt" xmlns="http://www.w3.org/2000/svg"><path d="m104 488h-88v-128c0-35.34375 28.65625-64 64-64h192c35.34375 0 64 28.65625 64 64v128h-88" fill="#efbe9a"/><path d="m232 296v56c0 30.929688-25.070312 56-56 56s-56-25.070312-56-56v-56h-48v86.113281c0 11.765625-2.734375 23.367188-8 33.886719s-8 22.128906-8 33.886719c0 21.050781 17.0625 38.113281 38.113281 38.113281h163.773438c21.050781 0 38.113281-17.0625 38.113281-38.113281 0-11.765625-2.734375-23.367188-8-33.886719s-8-22.128906-8-33.886719v-86.113281zm0 0" fill="#4472b2"/><path d="m93.03125 270.710938c-6.582031.929687-13.664062 1.289062-21.03125 1.289062-35.34375 0-64-16.230469-64-56s28.65625-88 64-88" fill="#f0d365"/><path d="m258.96875 270.710938c6.582031.929687 13.664062 1.289062 21.03125 1.289062 35.34375 0 64-16.230469 64-56s-28.65625-88-64-88" fill="#f0d365"/><path d="m88 208h-16c-17.671875 0-32-14.328125-32-32s14.328125-32 32-32h16" fill="#db9b7c"/><path d="m264 208h16c17.671875 0 32-14.328125 32-32s-14.328125-32-32-32h-16" fill="#efbe9a"/><path d="m285.296875 80c6.808594-7.054688 10.703125-15.257812 10.703125-24 0-26.511719-35.816406-48-80-48-14.59375 0-28.222656 2.382812-40 6.472656-11.777344-4.089844-25.40625-6.472656-40-6.472656-44.183594 0-80 21.488281-80 48 0 8.742188 3.894531 16.945312 10.703125 24" fill="#f0d365"/><path d="m56 80h240v48h-240zm0 0" fill="#4472b2"/><path d="m280 128v80c0 57.441406-46.558594 104-104 104s-104-46.558594-104-104v-80" fill="#db9b7c"/><path d="m164 311.257812c51.777344-5.960937 92-49.882812 92-103.257812v-80h-184v80c0 53.375 40.222656 97.296875 92 103.257812zm0 0" fill="#efbe9a"/><path d="m336 496h-88v-16h80v-120c0-30.871094-25.128906-56-56-56h-40v-16h40c39.703125 0 72 32.296875 72 72v128c0 4.425781-3.574219 8-8 8zm0 0"/><path d="m104 496h-88c-4.425781 0-8-3.574219-8-8v-128c0-39.703125 32.296875-72 72-72h40v16h-40c-30.871094 0-56 25.128906-56 56v120h80zm0 0"/><path d="m257.886719 496h-163.773438c-25.425781 0-46.113281-20.6875-46.113281-46.113281 0-12.925781 3.054688-25.878907 8.839844-37.472657 4.679687-9.359374 7.160156-19.847656 7.160156-30.300781v-86.113281h16v86.113281c0 12.925781-3.054688 25.878907-8.839844 37.472657-4.679687 9.359374-7.160156 19.847656-7.160156 30.300781 0 16.609375 13.503906 30.113281 30.113281 30.113281h163.78125c16.601563 0 30.105469-13.503906 30.105469-30.113281 0-10.460938-2.480469-20.941407-7.160156-30.3125-5.785156-11.582031-8.839844-24.535157-8.839844-37.460938v-86.113281h16v86.113281c0 10.460938 2.480469 20.941407 7.160156 30.3125 5.785156 11.582031 8.839844 24.535157 8.839844 37.460938 0 25.425781-20.6875 46.113281-46.113281 46.113281zm0 0"/><path d="m176 320c-61.761719 0-112-50.238281-112-112v-80h16v80c0 52.9375 43.0625 96 96 96s96-43.0625 96-96v-80h16v80c0 61.761719-50.238281 112-112 112zm0 0"/><path d="m72 216c-22.054688 0-40-17.945312-40-40s17.945312-40 40-40v16c-13.230469 0-24 10.769531-24 24s10.769531 24 24 24zm0 0"/><path d="m280 216v-16c13.230469 0 24-10.769531 24-24s-10.769531-24-24-24v-16c22.054688 0 40 17.945312 40 40s-17.945312 40-40 40zm0 0"/><path d="m192 152h56v16h-56zm0 0"/><path d="m104 152h56v16h-56zm0 0"/><path d="m168 192h16v32h-16zm0 0"/><path d="m140 200c-6.617188 0-12-5.382812-12-12s5.382812-12 12-12 12 5.382812 12 12-5.382812 12-12 12zm0-16c-2.199219 0-4 1.800781-4 4s1.800781 4 4 4 4-1.800781 4-4-1.800781-4-4-4zm0 0"/><path d="m212 200c-6.617188 0-12-5.382812-12-12s5.382812-12 12-12 12 5.382812 12 12-5.382812 12-12 12zm0-16c-2.199219 0-4 1.800781-4 4s1.800781 4 4 4 4-1.800781 4-4-1.800781-4-4-4zm0 0"/><path d="m176 288c-30.871094 0-56-25.128906-56-56h16c0 22.054688 17.945312 40 40 40s40-17.945312 40-40h16c0 30.871094-25.128906 56-56 56zm0 0"/><path d="m176 416c-35.289062 0-64-28.710938-64-64v-56h16v56c0 26.472656 21.527344 48 48 48s48-21.527344 48-48v-56h16v56c0 35.289062-28.710938 64-64 64zm0 0"/><path d="m296 136h-240c-4.425781 0-8-3.574219-8-8v-48c0-4.425781 3.574219-8 8-8h240c4.425781 0 8 3.574219 8 8v48c0 4.425781-3.574219 8-8 8zm-232-16h224v-32h-224zm0 0"/><path d="m72 280c-45.089844 0-72-23.921875-72-64 0-44.390625 31.457031-96 72-96v16c-30.160156 0-56 43.992188-56 80 0 41.769531 35.089844 48 56 48 7.617188 0 14.136719-.390625 19.921875-1.199219l2.214844 15.839844c-6.527344.910156-13.769531 1.359375-22.136719 1.359375zm0 0"/><path d="m280 280c-8.367188 0-15.609375-.449219-22.144531-1.359375l2.214843-15.839844c5.792969.808594 12.3125 1.199219 19.929688 1.199219 20.910156 0 56-6.230469 56-48 0-36.007812-25.839844-80-56-80v-16c40.542969 0 72 51.609375 72 96 0 40.078125-26.910156 64-72 64zm0 0"/><path d="m291.054688 85.542969-11.511719-11.09375c5.609375-5.832031 8.457031-12.035157 8.457031-18.449219 0-21.679688-32.96875-40-72-40-13.105469 0-26.023438 2.089844-37.375 6.03125-1.703125.59375-3.546875.59375-5.25 0-11.351562-3.941406-24.269531-6.03125-37.375-6.03125-39.03125 0-72 18.320312-72 40 0 6.414062 2.847656 12.617188 8.464844 18.457031l-11.511719 11.09375c-8.472656-8.78125-12.953125-19.007812-12.953125-29.550781 0-31.398438 38.65625-56 88-56 13.871094 0 27.640625 2.089844 40 6.046875 12.359375-3.957031 26.128906-6.046875 40-6.046875 49.34375 0 88 24.601562 88 56 0 10.542969-4.480469 20.769531-12.945312 29.542969zm0 0"/></svg>