<svg height="496pt" viewBox="-56 0 496 496" width="496pt" xmlns="http://www.w3.org/2000/svg"><path d="m143.945312 488h-88v-128c0-35.34375 28.65625-64 64-64h192c35.34375 0 64 28.65625 64 64v128h-88" fill="#efbe9a"/><path d="m111.945312 296v86.113281c0 11.765625-2.734374 23.367188-8 33.886719-5.265624 10.519531-8 22.128906-8 33.886719 0 21.050781 17.0625 38.113281 38.113282 38.113281h163.773437c21.050781 0 38.113281-17.0625 38.113281-38.113281 0-11.765625-2.734374-23.367188-8-33.886719-5.265624-10.519531-8-22.128906-8-33.886719v-86.113281h-48v56c0 30.929688-25.070312 56-56 56-30.925781 0-56-25.070312-56-56v-56zm0 0" fill="#e39854"/><path d="m117.648438 242.230469c-3.734376-10.71875-5.765626-22.238281-5.765626-34.230469v-80c0-57.441406 46.558594-104 104-104 10.183594 0 20.03125 1.464844 29.335938 4.191406l.046875-.160156c-17.207031-12.589844-38.425781-20.03125-61.382813-20.03125-57.441406 0-104 46.558594-104 104h.0625v48c0 39.769531-32.230468 72-72 72l33.96875 22.648438c9.152344 6.09375 19.894532 9.351562 30.894532 9.351562 14.777344 0 28.9375-5.871094 39.386718-16.3125zm0 0" fill="#976947"/><path d="m127.945312 208h-16c-17.671874 0-32-14.328125-32-32s14.328126-32 32-32h16" fill="#db9b7c"/><path d="m303.945312 208h16c17.671876 0 32-14.328125 32-32s-14.328124-32-32-32h-16" fill="#efbe9a"/><path d="m319.882812 128v80c0 57.441406-46.5625 104-104 104-57.441406 0-104-46.558594-104-104v-80c0-57.441406 46.558594-104 104-104 57.4375 0 104 46.558594 104 104zm0 0" fill="#db9b7c"/><path d="m203.914062 24.742188c-51.792968 5.945312-92.03125 49.875-92.03125 103.257812v80c0 53.382812 40.238282 97.3125 92.03125 103.257812 51.792969-5.9375 92.03125-49.875 92.03125-103.257812v-80c0-53.382812-40.238281-97.3125-92.03125-103.257812zm0 0" fill="#efbe9a"/><path d="m215.882812 24c-57.441406 0-104 46.558594-104 104h88c30.925782 0 56-25.070312 56-56 0 30.929688 25.070313 56 56 56h8c0-57.441406-46.5625-104-104-104zm0 0" fill="#976947"/><path d="m111.882812 128h88c30.375 0 55.046876-24.207031 55.917969-54.375-.605469-17.863281-7.984375-34.296875-20.109375-47.6875-6.425781-1.242188-13.035156-1.9375-19.808594-1.9375-57.441406 0-104 46.558594-104 104zm0 0" fill="#c18e59"/><path d="m375.945312 496h-88v-16h80v-120c0-30.871094-25.121093-56-56-56h-40v-16h40c39.695313 0 72 32.296875 72 72v128c0 4.425781-3.582031 8-8 8zm0 0"/><path d="m143.945312 496h-88c-4.414062 0-8-3.574219-8-8v-128c0-39.703125 32.304688-72 72-72h40v16h-40c-30.878906 0-56 25.128906-56 56v120h80zm0 0"/><path d="m215.945312 416c-35.289062 0-64-28.710938-64-64v-56h16v56c0 26.472656 21.527344 48 48 48 26.472657 0 48-21.527344 48-48v-56h16v56c0 35.289062-28.710937 64-64 64zm0 0"/><path d="m297.832031 496h-163.773437c-25.425782 0-46.113282-20.6875-46.113282-46.113281 0-12.933594 3.054688-25.894531 8.839844-37.472657 4.679688-9.359374 7.160156-19.839843 7.160156-30.308593v-86.105469h16v86.113281c0 12.933594-3.054687 25.894531-8.839843 37.472657-4.6875 9.351562-7.160157 19.839843-7.160157 30.300781 0 16.609375 13.503907 30.113281 30.113282 30.113281h163.773437c16.609375 0 30.113281-13.503906 30.113281-30.113281 0-10.472657-2.472656-20.949219-7.160156-30.3125-5.785156-11.566407-8.839844-24.527344-8.839844-37.460938v-86.113281h16v86.113281c0 10.472657 2.472657 20.949219 7.160157 30.3125 5.785156 11.566407 8.839843 24.527344 8.839843 37.460938 0 25.425781-20.6875 46.113281-46.113281 46.113281zm0 0"/><path d="m215.945312 320c-61.757812 0-112-50.238281-112-112v-80c0-61.761719 50.242188-112 112-112 61.761719 0 112 50.238281 112 112v80c0 61.761719-50.238281 112-112 112zm0-288c-52.9375 0-96 43.0625-96 96v80c0 52.9375 43.0625 96 96 96s96-43.0625 96-96v-80c0-52.9375-43.0625-96-96-96zm0 0"/><path d="m72.875 272c-12.617188 0-24.832031-3.695312-35.335938-10.695312l-33.976562-22.648438c-2.9375-1.953125-4.242188-5.601562-3.21875-8.976562 1.027344-3.375 4.136719-5.679688 7.664062-5.679688 35.289063 0 64-28.710938 64-64v-47c-.046874-.328125-.0625-.664062-.0625-1 0-61.761719 50.242188-112 112-112 23.976563 0 46.832032 7.464844 66.113282 21.585938l-9.457032 12.902343c-16.511718-12.089843-36.113281-18.488281-56.65625-18.488281-52.617187 0-95.480468 42.542969-96 95.039062.039063.320313.054688.632813.054688.960938v48c0 36.527344-24.613281 67.433594-58.132812 76.960938l16.542968 11.03125c7.871094 5.230468 17.023438 8.007812 26.464844 8.007812 12.742188 0 24.71875-4.960938 33.726562-13.96875l7.6875-7.6875 11.3125 11.3125-7.6875 7.6875c-12.03125 12.03125-28.023437 18.65625-45.039062 18.65625zm0 0"/><path d="m111.945312 216c-22.054687 0-40-17.945312-40-40s17.945313-40 40-40v16c-13.230468 0-24 10.769531-24 24s10.769532 24 24 24zm0 0"/><path d="m319.945312 216v-16c13.230469 0 24-10.769531 24-24s-10.769531-24-24-24v-16c22.054688 0 40 17.945312 40 40s-17.945312 40-40 40zm0 0"/><path d="m319.945312 136h-8c-35.289062 0-64-28.710938-64-64h16c0 26.472656 21.527344 48 48 48h8zm0 0"/><path d="m199.945312 136h-88v-16h88c26.472657 0 48-21.527344 48-48h16c0 35.289062-28.710937 64-64 64zm0 0"/><path d="m231.945312 152h56v16h-56zm0 0"/><path d="m143.945312 152h56v16h-56zm0 0"/><path d="m207.945312 192h16v32h-16zm0 0"/><path d="m179.945312 200c-6.617187 0-12-5.382812-12-12s5.382813-12 12-12c6.617188 0 12 5.382812 12 12s-5.382812 12-12 12zm0-16c-2.207031 0-4 1.800781-4 4s1.792969 4 4 4c2.207032 0 4-1.800781 4-4s-1.792968-4-4-4zm0 0"/><path d="m251.945312 200c-6.617187 0-12-5.382812-12-12s5.382813-12 12-12c6.617188 0 12 5.382812 12 12s-5.382812 12-12 12zm0-16c-2.207031 0-4 1.800781-4 4s1.792969 4 4 4c2.207032 0 4-1.800781 4-4s-1.792968-4-4-4zm0 0"/><path d="m215.945312 288c-30.878906 0-56-25.128906-56-56h16c0 22.054688 17.945313 40 40 40 22.054688 0 40-17.945312 40-40h16c0 30.871094-25.121093 56-56 56zm0 0"/></svg>