<?xml version="1.0" encoding="iso-8859-1"?>
<!-- Generator: Adobe Illustrator 19.0.0, SVG Export Plug-In . SVG Version: 6.00 Build 0)  -->
<svg version="1.1" id="Capa_1" xmlns="http://www.w3.org/2000/svg" xmlns:xlink="http://www.w3.org/1999/xlink" x="0px" y="0px"
	 viewBox="0 0 511.999 511.999" style="enable-background:new 0 0 511.999 511.999;" xml:space="preserve">
<polygon style="fill:#F0ECED;" points="111.714,143.786 400.287,143.786 376.239,456.407 135.761,456.407 "/>
<path style="fill:#E1D8DC;" d="M111.714,143.786l24.048,312.621h32.064l-15.429-200.578c16.126-6.806,30.317-17.606,41.211-31.495
	c18.694,10.197,39.767,15.642,61.392,15.642c22.237,0,43.806-5.719,62.834-16.427c6.394,8.267,14.04,15.572,22.755,21.676
	c15.032,10.528,32.328,16.792,50.482,18.382l9.217-119.821L111.714,143.786L111.714,143.786z"/>
<polygon style="fill:#FFBC68;" points="128.979,368.231 135.761,456.407 376.239,456.407 383.022,368.231 "/>
<polygon style="fill:#FFA535;" points="128.979,368.231 135.761,456.407 169.058,456.407 162.276,368.231 "/>
<path style="fill:#F0ECED;" d="M400.287,79.658c-15.797,0-30.515,4.588-42.927,12.478c-9.165-48.188-51.504-84.621-102.361-84.621
	c-50.462,0-92.544,35.87-102.147,83.502c-12.027-7.206-26.096-11.359-41.138-11.359c-44.271,0-80.159,35.888-80.159,80.159
	s35.888,80.159,80.159,80.159c33.651,0,62.44-20.745,74.325-50.137c18.374,16.232,42.514,26.089,68.96,26.089
	c27.161,0,51.891-10.395,70.44-27.418c11.544,30.094,40.693,51.466,74.849,51.466c44.271,0,80.159-35.888,80.159-80.159
	C480.446,115.547,444.558,79.658,400.287,79.658z"/>
<g>
	<path style="fill:#E1D8DC;" d="M63.618,164.827c0-42.964,33.802-78.028,76.263-80.061c-8.764-3.295-18.252-5.108-28.168-5.108
		c-44.271,0-80.159,35.888-80.159,80.159s35.888,80.159,80.159,80.159c1.299,0,2.588-0.042,3.872-0.103
		C85.227,228.464,63.618,199.175,63.618,164.827z"/>
	<path style="fill:#E1D8DC;" d="M184.916,96.027c9.599-47.615,51.654-83.475,102.091-83.501c-10.085-3.251-20.84-5.011-32.009-5.011
		c-48.437,0-89.134,33.056-100.816,77.833C165.303,86.791,175.709,90.51,184.916,96.027z"/>
</g>
<path d="M400.287,72.143c-13.2,0-26.13,2.96-37.916,8.626C348.772,33.404,305.141,0,254.998,0
	c-49.673,0-93.247,33.074-107.13,79.938c-11.307-5.12-23.634-7.794-36.155-7.794c-48.344,0-87.674,39.33-87.674,87.674
	s39.33,87.674,87.674,87.674c0.147,0,0.294-0.006,0.44-0.007l16.115,209.498c0.297,3.863,3.621,6.939,7.497,6.939h33.471
	c3.381,13.786,15.837,24.048,30.652,24.048c10.211,0,31.964-10.313,46.557-17.882c-2.81,8.855-9.396,20.19-24.787,27.652
	c-3.447,1.671-5.101,5.81-3.758,9.397c1.53,4.087,6.387,6.032,10.316,4.127c14.18-6.876,22.686-16.335,27.783-25.492
	c5.097,9.156,13.602,18.616,27.783,25.492c3.937,1.908,8.778-0.044,10.316-4.127c1.351-3.583-0.317-7.728-3.758-9.397
	c-15.391-7.463-21.978-18.797-24.787-27.653c14.593,7.57,36.346,17.883,46.557,17.883c14.814,0,27.27-10.261,30.652-24.048h33.471
	c3.879,0,7.2-3.076,7.497-6.939l10.828-140.757c0.319-4.138-2.778-7.75-6.916-8.069c-4.158-0.32-7.749,2.777-8.069,6.917
	l-3.511,45.643h-63.095l14.573-87.441c0.682-4.093-2.084-7.966-6.177-8.648c-4.109-0.686-7.966,2.084-8.649,6.177l-14.986,89.912
	h-34.214V256.009c0-4.15-3.364-7.515-7.515-7.515s-7.515,3.365-7.515,7.515v104.708h-34.214l-14.986-89.912
	c-0.683-4.093-4.546-6.857-8.649-6.177c-4.093,0.682-6.86,4.554-6.177,8.648l14.574,87.441h-63.095l-8.817-114.61
	c21.716-3.922,41.542-16.002,54.914-33.952c2.48-3.328,1.792-8.036-1.537-10.516c-3.329-2.48-8.036-1.794-10.516,1.537
	c-13.865,18.612-35.103,29.286-58.269,29.286c-40.057,0-72.644-32.588-72.644-72.644s32.589-72.644,72.644-72.644
	c13.151,0,26.041,3.558,37.276,10.29c4.383,2.627,10.222,0.033,11.229-4.962c9.05-44.89,48.91-77.472,94.779-77.472
	c46.381,0,86.325,33.019,94.979,78.511c0.975,5.119,7.005,7.742,11.415,4.938c11.635-7.396,25.085-11.305,38.895-11.305
	c40.057,0,72.644,32.588,72.644,72.644s-32.588,72.644-72.644,72.644c-22.03,0-42.622-9.841-56.495-26.999
	c-2.609-3.226-7.338-3.729-10.569-1.119c-3.227,2.609-3.728,7.342-1.118,10.568c13.454,16.64,32.148,27.57,52.772,31.223
	l-2.682,34.88c-0.319,4.138,2.778,7.75,6.916,8.069c0.196,0.015,0.391,0.022,0.584,0.022c3.889,0,7.182-2.997,7.485-6.939
	l2.667-34.683c0.146,0.001,0.293,0.006,0.44,0.006c48.344,0,87.674-39.33,87.674-87.674S448.632,72.143,400.287,72.143z
	 M199.889,472.939c-9.116,0-16.533-7.417-16.533-16.533c0-9.116,7.417-16.533,16.533-16.533c6.12,0,24.418,8.319,40.265,16.533
	C224.308,464.621,206.01,472.939,199.889,472.939z M312.112,472.939c-6.12,0-24.418-8.319-40.265-16.533
	c15.845-8.214,34.144-16.533,40.265-16.533c9.116,0,16.533,7.417,16.533,16.533C328.644,465.523,321.228,472.939,312.112,472.939z
	 M374.906,375.746l-5.626,73.145h-26.517c-3.381-13.786-15.837-24.048-30.652-24.048c-12.853,0-43.988,16.334-56.111,22.973
	c-12.123-6.638-43.259-22.973-56.111-22.973c-14.814,0-27.27,10.261-30.652,24.048H142.72l-5.626-73.145H374.906z"/>
<path d="M309.597,191.531c-16.109,11.045-34.988,16.883-54.598,16.883c-14.916,0-29.215-3.305-42.503-9.823
	c-3.726-1.828-8.228-0.288-10.056,3.438c-1.828,3.726-0.289,8.228,3.438,10.057c15.366,7.537,31.892,11.358,49.122,11.358
	c22.656,0,44.474-6.748,63.097-19.517c3.423-2.347,4.296-7.024,1.948-10.448C317.699,190.058,313.022,189.184,309.597,191.531z"/>
<g>
</g>
<g>
</g>
<g>
</g>
<g>
</g>
<g>
</g>
<g>
</g>
<g>
</g>
<g>
</g>
<g>
</g>
<g>
</g>
<g>
</g>
<g>
</g>
<g>
</g>
<g>
</g>
<g>
</g>
</svg>
