<?xml version="1.0" encoding="iso-8859-1"?>
<!-- Generator: Adobe Illustrator 19.0.0, SVG Export Plug-In . SVG Version: 6.00 Build 0)  -->
<svg version="1.1" id="Capa_1" xmlns="http://www.w3.org/2000/svg" xmlns:xlink="http://www.w3.org/1999/xlink" x="0px" y="0px"
	 viewBox="0 0 512 512" style="enable-background:new 0 0 512 512;" xml:space="preserve">
<path style="fill:#EF5050;" d="M341.877,361h-9.866c-20.592,42.102-63.501,27.868-76.011,22.596
	c-12.51,5.273-55.419,19.506-76.011-22.596h-9.866c-16.541,0-30,13.458-30,30v108.5c0,2.761,2.238,5,5,5h221.754
	c2.762,0,5-2.239,5-5V391C371.877,374.458,358.418,361,341.877,361z"/>
<path style="opacity:0.15;fill:#490089;enable-background:new    ;" d="M182.687,366.001c-0.936-1.569-1.835-3.238-2.698-5.001
	h-9.866c-16.541,0-30,13.458-30,30v108.5c0,2.761,2.238,5,5,5h29.123c-2.762,0-5-2.239-5-5V391
	C169.246,380.576,174.594,371.38,182.687,366.001z"/>
<path style="fill:#FFFFFF;" d="M256,383.596c-11.724,4.94-50.142,17.751-71.874-15.303V504.5h143.748V368.293
	C306.142,401.347,267.724,388.536,256,383.596z"/>
<path style="fill:#FFB98A;" d="M256,378.5l43.789-47.477l-0.004-0.013C286.527,337.41,271.674,341,256,341
	s-30.527-3.589-43.785-9.99l-0.004,0.013L256,378.5z"/>
<path style="fill:#C0272D;" d="M299.814,330.997L256,378.5l-43.813-47.503c-1.675-0.81-3.322-1.668-4.944-2.566L179.5,360
	c20.395,43.339,63.891,28.91,76.5,23.596c12.609,5.314,56.104,19.743,76.5-23.596l-27.742-31.568
	C303.135,329.329,301.489,330.188,299.814,330.997z"/>
<path style="fill:#C5CCD3;" d="M302.188,67c5.388-5.393,8.72-12.84,8.72-21.065v-8.628c0-16.462-13.346-29.807-29.807-29.807H230.9
	c-16.461,0-29.807,13.345-29.807,29.807v8.628c0,8.226,3.332,15.672,8.72,21.065H302.188z"/>
<path style="opacity:0.15;fill:#490089;enable-background:new    ;" d="M238.905,67c-5.388-5.393-8.72-12.84-8.72-21.065v-8.628
	c0-16.462,13.346-29.807,29.807-29.807h-29.093c-16.461,0-29.807,13.345-29.807,29.807v8.628c0,8.226,3.332,15.672,8.72,21.065
	H238.905z"/>
<path style="fill:#C5CCD3;" d="M145.486,195.525h9.295v-24.924c0-28.567,23.283-51.809,51.902-51.809
	c19.937,0,37.773-2.578,46.545,15.208c0.524,1.064,5.019,1.065,5.543,0c8.772-17.785,26.608-15.208,46.545-15.208
	c28.618,0,51.902,23.242,51.902,51.809v24.924h9.296c1.998,0,3.936,0.254,5.784,0.73c11.106-13.636,17.77-31.031,17.77-49.989
	c0-43.778-35.489-79.267-79.267-79.267H201.198c-43.777,0-79.267,35.489-79.267,79.267c0,18.959,6.664,36.354,17.77,49.989
	C141.55,195.779,143.488,195.525,145.486,195.525z"/>
<path style="opacity:0.15;fill:#490089;enable-background:new    ;" d="M145.486,195.525h9.295v-24.924
	c0-0.93,0.027-1.853,0.076-2.77c-1.936-6.859-2.994-14.086-2.994-21.564c0-43.778,35.489-79.267,79.267-79.267h-29.932
	c-43.777,0-79.267,35.489-79.267,79.267c0,18.959,6.664,36.354,17.77,49.989C141.55,195.779,143.488,195.525,145.486,195.525z"/>
<g>
	<path style="fill:#FFB98A;" d="M153,253c0.926,0,1.83,0.095,2.706,0.267c-0.607-4.48-0.925-9.051-0.925-13.696v-44.046h-9.295
		c-12.763,0-23.108,10.346-23.108,23.108v25.117c0,10.528,7.045,19.407,16.675,22.193C139.595,258.707,145.624,253,153,253z"/>
	<path style="fill:#FFB98A;" d="M366.515,195.525h-9.296v44.046c0,4.645-0.318,9.215-0.925,13.696
		c0.876-0.172,1.78-0.267,2.707-0.267c7.376,0,13.405,5.707,13.947,12.944c9.631-2.787,16.675-11.665,16.675-22.194v-25.117
		C389.622,205.872,379.276,195.525,366.515,195.525z"/>
</g>
<g>
	<path style="fill:#FFC502;" d="M155.708,253.267C154.831,253.095,153.927,253,153,253c-7.732,0-14,6.268-14,14s6.268,14,14,14
		c3.506,0,6.703-1.298,9.159-3.428C159.05,269.89,156.855,261.744,155.708,253.267z"/>
	<path style="fill:#FFC502;" d="M359,253c-0.927,0-1.831,0.095-2.707,0.267c-1.147,8.477-3.342,16.623-6.452,24.305
		c2.456,2.13,5.653,3.428,9.159,3.428c7.732,0,14-6.268,14-14S366.732,253,359,253z"/>
</g>
<path style="fill:#FFC7A9;" d="M256,341c-55.813,0-101.219-45.5-101.219-101.429v-68.97c0-28.567,23.283-51.809,51.902-51.809
	c19.937,0,37.773-2.578,46.545,15.208c0.524,1.064,5.019,1.065,5.543,0c8.772-17.785,26.608-15.208,46.545-15.208
	c28.618,0,51.902,23.242,51.902,51.809v68.97C357.219,295.5,311.813,341,256,341z"/>
<path style="opacity:0.15;fill:#490089;enable-background:new    ;" d="M185.126,257.284c-8.943-6.864-14.713-17.655-14.713-29.799
	c0-11.42,5.105-21.642,13.15-28.529v-28.355c0-26.679,20.309-48.707,46.304-51.503c-7.039-0.744-14.93-0.306-23.183-0.306
	c-28.619,0-51.902,23.242-51.902,51.809v68.97C154.781,295.5,200.188,341,256,341c4.885,0,9.689-0.356,14.391-1.03
	C227.175,333.779,192.69,300.131,185.126,257.284z"/>
<path style="fill:#98E8F9;" d="M245.514,227.485c0,20.738-16.812,37.551-37.55,37.551l0,0c-20.738,0-37.552-16.813-37.552-37.551
	l0,0c0-20.738,16.813-37.551,37.552-37.551l0,0C228.702,189.934,245.514,206.747,245.514,227.485L245.514,227.485z"/>
<g style="opacity:0.15;">
	<path style="fill:#3D0072;" d="M191.898,227.485c0-17.004,11.307-31.36,26.809-35.983c-3.405-1.015-7.009-1.568-10.743-1.568
		c-20.738,0-37.552,16.813-37.552,37.551s16.813,37.551,37.552,37.551c3.734,0,7.338-0.553,10.743-1.568
		C203.205,258.845,191.898,244.488,191.898,227.485z"/>
</g>
<path style="fill:#98E8F9;" d="M341.588,227.485c0,20.738-16.813,37.551-37.552,37.551l0,0c-20.738,0-37.55-16.813-37.55-37.551l0,0
	c0-20.738,16.812-37.551,37.55-37.551l0,0C324.775,189.934,341.588,206.747,341.588,227.485L341.588,227.485z"/>
<g style="opacity:0.15;">
	<path style="fill:#3D0072;" d="M287.973,227.485c0-17.004,11.307-31.36,26.809-35.983c-3.405-1.015-7.009-1.568-10.743-1.568
		c-20.738,0-37.552,16.813-37.552,37.551s16.814,37.551,37.552,37.551c3.734,0,7.338-0.553,10.743-1.568
		C299.279,258.845,287.973,244.488,287.973,227.485z"/>
</g>
<g>
	<circle style="fill:#C5CCD3;" cx="256" cy="421.09" r="11.09"/>
	<circle style="fill:#C5CCD3;" cx="256" cy="469.91" r="11.09"/>
</g>
<path d="M383.671,193.299c8.784-13.561,13.897-29.708,13.897-47.033c0-46.168-36.248-84.026-81.778-86.62
	c1.687-4.247,2.617-8.872,2.617-13.712v-8.628C318.407,16.736,301.671,0,281.101,0H230.9c-20.571,0-37.307,16.736-37.307,37.307
	v8.628c0,4.84,0.931,9.466,2.617,13.712c-45.531,2.594-81.778,40.451-81.778,86.62c0,17.325,5.114,33.473,13.897,47.033
	c-8.111,5.511-13.451,14.81-13.451,25.334v25.117c0,12.006,6.95,22.417,17.037,27.427c1.951,9.862,10.66,17.323,21.085,17.323
	c1.912,0,3.76-0.266,5.524-0.739c8.5,17.187,21.387,31.825,37.198,42.418l-20.494,23.32h-5.104c-20.678,0-37.5,16.822-37.5,37.5
	v108.5c0,6.893,5.607,12.5,12.5,12.5h221.754c6.892,0,12.5-5.607,12.5-12.5V440c0-4.142-3.358-7.5-7.5-7.5s-7.5,3.358-7.5,7.5v57
	h-29.003V370.481c0.394-0.646,0.781-1.307,1.164-1.981h5.339c12.407,0,22.5,10.093,22.5,22.5v11c0,4.142,3.358,7.5,7.5,7.5
	s7.5-3.358,7.5-7.5v-11c0-20.678-16.822-37.5-37.5-37.5h-5.105l-20.495-23.321c15.811-10.593,28.698-25.231,37.198-42.418
	c1.764,0.473,3.612,0.739,5.524,0.739c10.425,0,19.135-7.461,21.085-17.322c10.087-5.011,17.037-15.421,17.037-27.428v-25.117
	C397.122,208.109,391.782,198.81,383.671,193.299z M208.593,37.307C208.593,25.007,218.6,15,230.9,15h50.201
	c12.3,0,22.307,10.007,22.307,22.307v8.628c0,5.105-1.736,9.803-4.633,13.565h-4.855c2.793-4.497,4.488-9.315,4.488-13.565v-8.628
	c0-9.543-7.764-17.307-17.307-17.307H230.9c-9.543,0-17.307,7.764-17.307,17.307c0,4.142,3.358,7.5,7.5,7.5s7.5-3.358,7.5-7.5
	c0-1.272,1.035-2.307,2.307-2.307h50.201c1.272,0,2.307,1.035,2.307,2.307v8.628c0,1.504-1.498,5.321-4.828,9.096
	c-1.894,2.146-3.792,3.598-5.429,4.47h-59.924c-2.896-3.762-4.633-8.461-4.633-13.565v-8.629H208.593z M129.432,146.267
	c0-39.572,32.194-71.767,71.767-71.767h109.604c39.572,0,71.767,32.194,71.767,71.767c0,15.621-5.033,30.079-13.543,41.87
	c-0.829-0.067-1.665-0.111-2.511-0.111h-1.796v-17.424c0-7.337-1.334-14.505-3.963-21.307c-1.493-3.863-5.836-5.783-9.7-4.29
	c-3.864,1.494-5.785,5.836-4.291,9.7c1.96,5.069,2.954,10.418,2.954,15.897v51.884h-0.915
	c-2.496-22.496-21.616-40.051-44.768-40.051c-23.15,0-42.27,17.555-44.766,40.051h-6.541c-2.496-22.496-21.616-40.051-44.766-40.051
	c-23.151,0-42.271,17.555-44.768,40.051h-0.915v-51.884c0-24.432,19.919-44.309,44.402-44.309c2.315,0,4.603-0.034,6.853-0.067
	c17.935-0.272,27.545,0.104,32.966,11.092c0.917,1.86,3.37,4.981,9.498,4.981c0.001,0,0.002,0,0.003,0
	c6.126-0.001,8.579-3.123,9.494-4.98c5.421-10.99,15.033-11.361,32.968-11.093c2.249,0.034,4.536,0.067,6.851,0.067
	c6.8,0,13.328,1.5,19.401,4.459c3.723,1.814,8.212,0.266,10.027-3.459c1.814-3.724,0.266-8.213-3.458-10.027
	c-6.358-3.097-13.086-4.983-20.061-5.668V96.171c0-4.142-3.358-7.5-7.5-7.5s-7.5,3.358-7.5,7.5v15.021
	c-5.685-0.072-11.387-0.053-16.816,0.682V96.171c0-4.142-3.358-7.5-7.5-7.5s-7.5,3.358-7.5,7.5v20.584
	c-3.082,1.848-5.915,4.287-8.408,7.519c-2.492-3.233-5.326-5.672-8.409-7.52V96.171c0-4.142-3.358-7.5-7.5-7.5s-7.5,3.358-7.5,7.5
	v15.702c-5.43-0.734-11.132-0.753-16.816-0.681V96.171c0-4.142-3.358-7.5-7.5-7.5s-7.5,3.358-7.5,7.5v15.416
	c-29.991,2.971-53.494,28.302-53.494,59.014v17.424h-1.795c-0.847,0-1.683,0.044-2.512,0.111
	C134.464,176.345,129.432,161.888,129.432,146.267z M334.088,227.485c0,16.57-13.481,30.051-30.052,30.051
	c-16.569,0-30.05-13.481-30.05-30.051s13.48-30.051,30.05-30.051C320.607,197.434,334.088,210.915,334.088,227.485z
	 M238.014,227.485c0,16.57-13.48,30.051-30.05,30.051c-16.571,0-30.052-13.481-30.052-30.051s13.481-30.051,30.052-30.051
	C224.533,197.434,238.014,210.915,238.014,227.485z M129.878,218.633c0-8.606,7.002-15.608,15.608-15.608h1.795v20.121h-5.292
	c-4.142,0-7.5,3.358-7.5,7.5s3.358,7.5,7.5,7.5h5.292v1.425c0,2.241,0.073,4.464,0.207,6.672c-5.194,1.381-9.621,4.647-12.489,9.037
	c-3.143-2.852-5.121-6.96-5.121-11.53V218.633z M146.5,267c0-2.3,1.205-4.321,3.013-5.476c0.835,4.072,1.888,8.066,3.165,11.96
	C149.244,273.314,146.5,270.475,146.5,267z M208.635,338.209l37.766,40.946c-5.673,1.82-13.189,3.558-21.212,3.558
	c-16.181,0-28.498-7.264-36.676-21.607L208.635,338.209z M236.994,346.831c6.173,1.095,12.524,1.669,19.006,1.669
	s12.833-0.574,19.006-1.669L256,367.438L236.994,346.831z M320.374,497H191.626v-18c0-4.142-3.358-7.5-7.5-7.5s-7.5,3.358-7.5,7.5
	v18h-29.003V391c0-12.407,10.093-22.5,22.5-22.5h5.339c0.383,0.675,0.771,1.336,1.164,1.981V440c0,4.142,3.358,7.5,7.5,7.5
	s7.5-3.358,7.5-7.5v-52.781c11.131,8.247,23.464,10.494,33.563,10.494c12.523,0,23.851-3.383,30.811-6.038
	c6.959,2.654,18.287,6.037,30.81,6.038c0.003,0,0.002,0,0.004,0c10.098,0,22.43-2.248,33.56-10.494V497z M323.487,361.105
	c-8.178,14.344-20.495,21.607-36.675,21.607c-8.023,0-15.539-1.738-21.212-3.558l37.766-40.946L323.487,361.105z M256,333.5
	c-51.677,0-93.719-42.136-93.719-93.929v-2.086h1.764c4.562,20.042,22.515,35.051,43.919,35.051c12.415,0,23.663-5.057,31.816-13.21
	c0.164,9.498,7.37,17.174,16.22,17.174h8.735c4.142,0,7.5-3.358,7.5-7.5s-3.358-7.5-7.5-7.5H256c-0.298,0-1.235-0.914-1.235-2.5
	v-21.515h5.355c4.562,20.042,22.514,35.051,43.917,35.051c21.404,0,39.357-15.008,43.919-35.051h1.764v2.086
	C349.719,291.364,307.677,333.5,256,333.5z M359.323,273.483c1.277-3.894,2.329-7.887,3.165-11.96
	c1.808,1.155,3.013,3.176,3.013,5.476C365.5,270.475,362.756,273.314,359.323,273.483z M382.122,243.75
	c0,4.57-1.979,8.679-5.121,11.53c-2.868-4.39-7.295-7.656-12.489-9.037c0.134-2.208,0.207-4.431,0.207-6.672v-1.425h5.292
	c4.142,0,7.5-3.358,7.5-7.5s-3.358-7.5-7.5-7.5h-5.292v-20.121h1.796c8.606,0,15.608,7.001,15.608,15.608L382.122,243.75
	L382.122,243.75z"/>
<path d="M280.231,293.5h-48.463c-4.142,0-7.5,3.358-7.5,7.5s3.358,7.5,7.5,7.5h48.463c4.142,0,7.5-3.358,7.5-7.5
	S284.374,293.5,280.231,293.5z"/>
<path d="M296.2,147.5h-80.4c-4.142,0-7.5,3.358-7.5,7.5s3.358,7.5,7.5,7.5h80.4c4.142,0,7.5-3.358,7.5-7.5
	S300.342,147.5,296.2,147.5z"/>
<path d="M280.967,167.5h-49.934c-4.142,0-7.5,3.358-7.5,7.5s3.358,7.5,7.5,7.5h49.934c4.142,0,7.5-3.358,7.5-7.5
	S285.109,167.5,280.967,167.5z"/>
<path d="M204.581,283.004l-11,11c-2.929,2.929-2.929,7.678,0,10.607c1.464,1.464,3.384,2.197,5.303,2.197
	c1.919,0,3.839-0.732,5.303-2.197l11-11c2.929-2.929,2.929-7.678,0-10.607C212.259,280.075,207.51,280.075,204.581,283.004z"/>
<path d="M307.419,283.004c-2.929-2.929-7.678-2.929-10.606,0c-2.929,2.929-2.929,7.678,0,10.607l11,11
	c1.464,1.464,3.384,2.197,5.303,2.197s3.839-0.732,5.303-2.197c2.929-2.929,2.929-7.678,0-10.607L307.419,283.004z"/>
<path d="M285.072,230.587c0,4.142,3.358,7.5,7.5,7.5s7.5-3.358,7.5-7.5c0-1.711,1.832-3.157,4.001-3.157
	c2.167,0,3.999,1.446,3.999,3.157c0,4.142,3.358,7.5,7.5,7.5s7.5-3.358,7.5-7.5c0-10.012-8.523-18.157-18.999-18.157
	C293.596,212.431,285.072,220.576,285.072,230.587z"/>
<path d="M188.928,230.587c0,4.142,3.358,7.5,7.5,7.5s7.5-3.358,7.5-7.5c0-1.711,1.832-3.157,4.001-3.157
	c2.168,0,3.999,1.446,3.999,3.157c0,4.142,3.358,7.5,7.5,7.5s7.5-3.358,7.5-7.5c0-10.012-8.523-18.157-18.999-18.157
	C197.452,212.431,188.928,220.576,188.928,230.587z"/>
<path d="M241.912,54.5h28.177c4.142,0,7.5-3.358,7.5-7.5s-3.358-7.5-7.5-7.5h-28.177c-4.142,0-7.5,3.358-7.5,7.5
	S237.77,54.5,241.912,54.5z"/>
<path d="M256,402.5c-10.251,0-18.592,8.34-18.592,18.592c0,10.251,8.34,18.592,18.592,18.592s18.592-8.34,18.592-18.592
	S266.251,402.5,256,402.5z M256,424.684c-1.98,0-3.592-1.611-3.592-3.592S254.02,417.5,256,417.5c1.98,0,3.592,1.611,3.592,3.592
	S257.98,424.684,256,424.684z"/>
<path d="M256,451.316c-10.251,0-18.592,8.34-18.592,18.592S245.748,488.5,256,488.5s18.592-8.34,18.592-18.592
	C274.592,459.657,266.251,451.316,256,451.316z M256,473.5c-1.98,0-3.592-1.611-3.592-3.592s1.611-3.592,3.592-3.592
	s3.592,1.611,3.592,3.592S257.98,473.5,256,473.5z"/>
<g>
</g>
<g>
</g>
<g>
</g>
<g>
</g>
<g>
</g>
<g>
</g>
<g>
</g>
<g>
</g>
<g>
</g>
<g>
</g>
<g>
</g>
<g>
</g>
<g>
</g>
<g>
</g>
<g>
</g>
</svg>
